<svg width="29" height="30" viewBox="0 0 29 30" fill="none" xmlns="http://www.w3.org/2000/svg">
<path d="M28.108 8.11857L20.4651 0.176836C20.3563 0.0638672 20.2062 0 20.0494 0H8.65816C7.38334 0 6.34617 1.03676 6.34617 2.31105V10.3846H1.72975C0.775957 10.3846 0 11.1604 0 12.1139V20.7708C0 21.7243 0.775957 22.5 1.72975 22.5H6.34617V27.693C6.34617 28.9651 7.38334 30 8.65816 30H25.9573C27.2321 30 28.2693 28.9656 28.2693 27.6943V8.51865C28.2693 8.36947 28.2114 8.22609 28.108 8.11857ZM20.1923 1.55748L26.4665 8.07691H20.1923V1.55748ZM1.72975 21.3462C1.41217 21.3462 1.15389 21.0881 1.15389 20.7708V12.1139C1.15389 11.7966 1.41223 11.5385 1.72975 11.5385H17.3088C17.6263 11.5385 17.8846 11.7966 17.8846 12.1139V20.7708C17.8846 21.0881 17.6263 21.3462 17.3088 21.3462H1.72975ZM27.1154 27.6943C27.1154 28.3294 26.5958 28.8462 25.9572 28.8462H8.65816C8.01955 28.8462 7.5 28.3289 7.5 27.693V22.5H17.3088C18.2626 22.5 19.0385 21.7243 19.0385 20.7708V12.1139C19.0385 11.1604 18.2626 10.3846 17.3088 10.3846H7.5V2.31105C7.5 1.67291 8.01955 1.15383 8.65816 1.15383H19.0385V8.65383C19.0385 8.97246 19.2968 9.23074 19.6154 9.23074H27.1154V27.6943Z" fill="#F2F1E7"/>
<path d="M6.89719 14.6422C6.70565 14.3932 6.46788 14.2315 6.18393 14.1571C5.99913 14.1076 5.6025 14.0828 4.99401 14.0828H3.38831V19.0385H4.38891V17.1691H5.04135C5.49434 17.1691 5.84028 17.1454 6.07916 17.0981C6.25495 17.0597 6.42791 16.9815 6.59807 16.8631C6.76823 16.7448 6.9085 16.582 7.01895 16.3747C7.1294 16.1674 7.18459 15.9115 7.18459 15.6073C7.18454 15.2129 7.08874 14.8912 6.89719 14.6422ZM6.04026 16.0062C5.96479 16.1167 5.86055 16.1978 5.72754 16.2496C5.59454 16.3015 5.33092 16.3274 4.93653 16.3274H4.38891V14.9211H4.87231C5.2329 14.9211 5.4729 14.9324 5.59231 14.9549C5.75456 14.9842 5.88868 15.0575 5.99456 15.1747C6.10049 15.2919 6.15346 15.4406 6.15346 15.6209C6.15352 15.7673 6.11573 15.8958 6.04026 16.0062Z" fill="#F2F1E7"/>
<path d="M11.9948 15.4366C11.8867 15.12 11.7289 14.8524 11.5216 14.6338C11.3143 14.4152 11.0652 14.2631 10.7745 14.1774C10.5582 14.1143 10.2438 14.0828 9.83139 14.0828H8.00256V19.0385H9.88547C10.2551 19.0385 10.5503 19.0035 10.7711 18.9336C11.0664 18.839 11.3007 18.7072 11.4742 18.5381C11.7041 18.315 11.881 18.0232 12.005 17.6626C12.1064 17.3674 12.1571 17.0158 12.1571 16.6079C12.1571 16.1437 12.103 15.7533 11.9948 15.4366ZM11.0213 17.4717C10.9536 17.6937 10.8663 17.8531 10.7593 17.95C10.6522 18.0469 10.5176 18.1156 10.3553 18.1561C10.2314 18.1877 10.0297 18.2035 9.75024 18.2035H9.00317V14.9211H9.45276C9.86063 14.9211 10.1345 14.9369 10.2742 14.9685C10.4612 15.009 10.6156 15.0868 10.7373 15.2017C10.859 15.3167 10.9536 15.4767 11.0213 15.6817C11.0889 15.8868 11.1227 16.1809 11.1227 16.564C11.1227 16.9471 11.0889 17.2496 11.0213 17.4717Z" fill="#F2F1E7"/>
<path d="M16.4097 14.9211V14.0828H13.0123V19.0385H14.0129V16.9325H16.0818V16.0941H14.0129V14.9211H16.4097Z" fill="#F2F1E7"/>
</svg>
