<svg width="40" height="40" viewBox="0 0 40 40" fill="none" xmlns="http://www.w3.org/2000/svg">
<path d="M35.8272 0H29.1761C28.7763 0 28.4523 0.324064 28.4523 0.723753C28.4523 1.12344 28.7763 1.44751 29.1761 1.44751H35.8272C37.33 1.44751 38.5526 2.67009 38.5526 4.17283V35.8272C38.5526 37.33 37.33 38.5526 35.8272 38.5526H4.17283C2.67001 38.5526 1.44751 37.33 1.44751 35.8272V4.17283C1.44751 2.67001 2.67009 1.44751 4.17283 1.44751H26.7636C27.1634 1.44751 27.4874 1.12344 27.4874 0.723753C27.4874 0.324064 27.1634 0 26.7636 0H4.17283C1.87188 0 0 1.87188 0 4.17283V35.8273C0 38.1281 1.87188 40.0001 4.17283 40.0001H35.8273C38.1281 40.0001 40.0001 38.128 40 35.8271V4.17283C40 1.87188 38.1281 0 35.8272 0Z" fill="#F2F1E7"/>
<path d="M35.8272 2.99146H4.17282C3.52141 2.99146 2.99149 3.52146 2.99149 4.17279V35.8272C2.99149 36.4786 3.52149 37.0085 4.17282 37.0085H35.8272C36.4786 37.0085 37.0086 36.4785 37.0085 35.8271V4.17279C37.0085 3.52146 36.4785 2.99146 35.8272 2.99146ZM35.5611 35.5611H4.43899V4.43896H35.5611V35.5611H35.5611Z" fill="#F2F1E7"/>
<path d="M21.8988 7.2605H14.156C13.7563 7.2605 13.4322 7.58456 13.4322 7.98425V12.0372C13.4322 12.4368 13.7563 12.7609 14.156 12.7609C14.5557 12.7609 14.8797 12.4368 14.8797 12.0372V8.70808H21.8988C26.0529 8.70808 29.4325 12.0877 29.4325 16.2419C29.4325 20.396 26.0529 23.7756 21.8988 23.7756H18.4457C18.046 23.7756 17.7219 24.0997 17.7219 24.4994V32.0117H14.8797V14.4496C14.8797 14.0499 14.5556 13.7258 14.1559 13.7258C13.7562 13.7258 13.4322 14.0499 13.4322 14.4496V32.7354C13.4322 33.1351 13.7562 33.4592 14.1559 33.4592H18.4458C18.8455 33.4592 19.1695 33.1351 19.1695 32.7354V25.2231H21.8988C26.851 25.2231 30.88 21.1941 30.88 16.2418C30.88 11.2895 26.851 7.2605 21.8988 7.2605Z" fill="#F2F1E7"/>
<path d="M18.4457 20.9333H21.8988C24.4856 20.9333 26.5902 18.8288 26.5902 16.2419C26.5902 13.655 24.4857 11.5503 21.8988 11.5503H18.4457C18.046 11.5503 17.722 11.8744 17.722 12.274V20.2095C17.722 20.6092 18.046 20.9333 18.4457 20.9333ZM19.1695 12.9976H21.8988C23.6875 12.9976 25.1427 14.453 25.1427 16.2417C25.1427 18.0305 23.6874 19.4858 21.8987 19.4858H19.1694V12.9976H19.1695Z" fill="#F2F1E7"/>
</svg>
