<svg width="40" height="40" viewBox="0 0 40 40" fill="none" xmlns="http://www.w3.org/2000/svg">
<path d="M39.3188 3.50758C39.6951 3.50758 40.0001 3.20251 40.0001 2.82626V0.681329C40.0001 0.305079 39.6952 0 39.3188 0H8.48695C8.1107 0 7.80562 0.305079 7.80562 0.681329V31.513C7.80562 31.8893 8.1107 32.1944 8.48695 32.1944H39.3187C39.695 32.1944 40 31.8893 40 31.513V5.09728C40 4.72102 39.6951 4.41595 39.3187 4.41595C38.9423 4.41595 38.6373 4.72102 38.6373 5.09728V16.7704H35.9315C35.5552 16.7704 35.2502 17.0755 35.2502 17.4518C35.2502 17.828 35.5551 18.1331 35.9315 18.1331H38.6373V30.8318H19.1713V27.5351C19.1713 27.1589 18.8663 26.8538 18.49 26.8538C18.1138 26.8538 17.8087 27.1589 17.8087 27.5351V30.8318H9.16828V1.36266H17.8088V22.6297C17.8088 23.006 18.1138 23.3111 18.4901 23.3111C18.8663 23.3111 19.1714 23.006 19.1714 22.6297V18.1331H31.2987C31.675 18.1331 31.98 17.828 31.98 17.4518C31.98 17.0755 31.6751 16.7704 31.2987 16.7704H19.1713V1.36266H38.6375V2.82626C38.6375 3.20251 38.9424 3.50758 39.3188 3.50758Z" fill="#F2F1E7"/>
<path d="M5.75616 3.93212L3.50795 0.321251C3.38358 0.121485 3.16483 0 2.92959 0C2.69428 0 2.47561 0.121485 2.35123 0.321251L0.102948 3.93212C-0.0278335 4.1422 -0.0344741 4.40665 0.0856824 4.62298C0.205839 4.83931 0.433886 4.97353 0.681309 4.97353H2.24826V7.82259C2.24826 8.19884 2.55334 8.50392 2.92959 8.50392C3.30585 8.50392 3.61092 8.19884 3.61092 7.82259V4.97353H5.17788C5.4253 4.97353 5.65335 4.83938 5.77351 4.62298C5.89366 4.40657 5.88702 4.14212 5.75616 3.93212ZM1.90811 3.61087L2.92952 1.97039L3.95092 3.61087H1.90811Z" fill="#F2F1E7"/>
<path d="M5.77343 27.5717C5.65327 27.3553 5.42522 27.2212 5.1778 27.2212H3.61085V9.63958C3.61085 9.26333 3.30577 8.95825 2.92952 8.95825C2.55327 8.95825 2.24819 9.26333 2.24819 9.63958V27.2211H0.681309C0.433886 27.2211 0.205839 27.3552 0.0856824 27.5717C-0.0344741 27.7881 -0.0278335 28.0525 0.102948 28.2625L2.35116 31.8734C2.47553 32.0731 2.6942 32.1946 2.92952 32.1946C3.16491 32.1946 3.38358 32.0731 3.50788 31.8734L5.75608 28.2625C5.88702 28.0524 5.89366 27.788 5.77343 27.5717ZM2.92959 30.2243L1.90811 28.5838H3.95092L2.92959 30.2243Z" fill="#F2F1E7"/>
<path d="M39.6789 36.4922L36.068 34.244C35.8579 34.1132 35.5935 34.1067 35.3772 34.2268C35.1608 34.3469 35.0267 34.575 35.0267 34.8224V36.3893H12.7791V34.8224C12.7791 34.575 12.645 34.3469 12.4287 34.2268C12.2123 34.1067 11.948 34.1132 11.7377 34.244L8.12687 36.4922C7.9271 36.6166 7.80562 36.8353 7.80562 37.0706C7.80562 37.3059 7.9271 37.5246 8.12687 37.649L11.7377 39.8972C11.8477 39.9657 11.9727 40.0001 12.0978 40.0001C12.2116 40.0001 12.3255 39.9716 12.4286 39.9144C12.645 39.7943 12.7791 39.5662 12.7791 39.3188V37.7518H35.0266V39.3188C35.0266 39.5662 35.1609 39.7943 35.3771 39.9144C35.4802 39.9717 35.5941 40.0001 35.7079 40.0001C35.833 40.0001 35.958 39.9656 36.068 39.8972L39.6789 37.649C39.8787 37.5246 40.0001 37.3059 40.0001 37.0706C40.0001 36.8352 39.8787 36.6166 39.6789 36.4922ZM11.4165 38.092L9.77601 37.0706L11.4165 36.0492V38.092ZM36.3893 38.092V36.0492L38.0299 37.0706L36.3893 38.092Z" fill="#F2F1E7"/>
</svg>
