<svg width="39" height="48" viewBox="0 0 39 48" fill="none" xmlns="http://www.w3.org/2000/svg">
<path d="M33.3762 21.2393C33.0695 20.9327 32.5724 20.9327 32.2659 21.2393C31.6154 21.8899 30.5569 21.8899 29.9063 21.2393C29.2558 20.5888 29.2558 19.5303 29.9063 18.8798C30.213 18.5731 30.213 18.0759 29.9063 17.7695C29.5997 17.4627 29.1025 17.4628 28.796 17.7695C28.2102 18.3553 27.8967 19.1116 27.8544 19.8803C27.8482 19.886 27.8417 19.8912 27.8356 19.8973L23.3663 24.3666V18.1408C24.3705 17.3207 25.013 16.0737 25.013 14.6792C25.013 14.2456 24.6614 13.894 24.2278 13.894C23.7942 13.894 23.4426 14.2456 23.4426 14.6792C23.4426 16.2773 22.1425 17.5774 20.5445 17.5774C20.057 17.5774 19.5745 17.4537 19.1497 17.2199C18.8991 17.0818 18.5931 17.0913 18.3513 17.2443C18.0069 17.4623 17.6091 17.5774 17.2007 17.5774C16.0115 17.5774 15.044 16.6099 15.044 15.4207C15.044 14.9871 14.6924 14.6355 14.2588 14.6355C13.8252 14.6355 13.4737 14.9871 13.4737 15.4207C13.4737 16.4984 13.934 17.4702 14.6677 18.1512V21.4454L10.735 17.5128C10.7203 17.4981 10.7047 17.4845 10.6891 17.4713C10.6099 16.7676 10.3019 16.0849 9.7634 15.5463C9.45675 15.2395 8.95959 15.2396 8.65312 15.5463C8.34647 15.8529 8.34647 16.3499 8.65312 16.6566C9.30366 17.3071 9.30366 18.3656 8.65312 19.0162C8.23688 19.4324 7.62384 19.5992 7.053 19.4514C6.63356 19.343 6.20484 19.5951 6.09619 20.0149C5.98753 20.4347 6.23981 20.863 6.65963 20.9717C6.92606 21.0407 7.19709 21.0742 7.46653 21.0742C7.55897 21.0742 7.65122 21.0695 7.743 21.0616L13.4876 26.8063C14.2487 27.5674 14.6677 28.5791 14.6677 29.6553V47.2149C14.6677 47.6485 15.0193 48.0001 15.4529 48.0001C15.8865 48.0001 16.2381 47.6485 16.2381 47.2149V29.6554C16.2381 28.1598 15.6556 26.7536 14.598 25.6959L9.36553 20.4634C9.50587 20.3626 9.63937 20.2506 9.7635 20.1264C10.0011 19.8888 10.1939 19.6232 10.3421 19.3402L14.8978 23.8958C15.048 24.046 15.2488 24.1258 15.4532 24.1258C15.5543 24.1258 15.6563 24.1062 15.7536 24.066C16.047 23.9445 16.2382 23.6582 16.2382 23.3407V19.0205C16.5455 19.1028 16.8681 19.1472 17.201 19.1472C17.7547 19.1472 18.2974 19.0246 18.7932 18.7899C19.3446 19.0246 19.9423 19.1472 20.5448 19.1472C20.9793 19.1472 21.399 19.0838 21.7963 18.9676V26.2616C21.7963 26.5793 21.9875 26.8655 22.281 26.987C22.3781 27.0272 22.4801 27.0468 22.5814 27.0468C22.7857 27.0468 22.9865 26.967 23.1367 26.8168L28.2795 21.6741C28.4183 21.9157 28.5902 22.1433 28.7964 22.3495C28.9505 22.5037 29.1175 22.6403 29.2948 22.7586L24.1573 27.8961C22.6349 29.4185 21.7963 31.4428 21.7963 33.5959V39.1814C21.7963 39.615 22.1479 39.9666 22.5815 39.9666C23.015 39.9666 23.3666 39.615 23.3666 39.1814V33.5959C23.3666 31.8622 24.0417 30.2323 25.2676 29.0063L30.9783 23.2957C31.0143 23.2968 31.0502 23.2983 31.0863 23.2983C31.9514 23.2983 32.7647 22.9614 33.3764 22.3496C33.6828 22.043 33.6828 21.5458 33.3762 21.2393Z" fill="#F2F1E7"/>
<path d="M22.5812 41.2249C22.1476 41.2249 21.796 41.5764 21.796 42.01V47.2147C21.796 47.6483 22.1476 47.9999 22.5812 47.9999C23.0148 47.9999 23.3663 47.6483 23.3663 47.2147V42.01C23.3662 41.5764 23.0148 41.2249 22.5812 41.2249Z" fill="#F2F1E7"/>
<path d="M14.0728 34.2072C13.959 33.789 13.5272 33.5421 13.1091 33.656C12.8186 33.7351 12.5167 33.7752 12.2119 33.7752C10.3336 33.7752 8.80535 32.247 8.80535 30.3687C8.80535 30.1778 8.82241 29.982 8.85588 29.7867C8.90106 29.5238 8.80975 29.256 8.61325 29.0756C8.41675 28.8951 8.14216 28.8268 7.88397 28.8941C7.51994 28.989 7.14372 29.037 6.76563 29.037C4.33001 29.037 2.34851 27.0554 2.34851 24.6198C2.34851 23.5762 2.72013 22.563 3.39495 21.7667C3.53566 21.6008 3.6012 21.3838 3.5757 21.1676C3.55038 20.9514 3.43638 20.7555 3.26116 20.6265C2.38404 19.9813 1.77748 19.0439 1.55332 17.9867C1.46342 17.5625 1.04698 17.2914 0.622385 17.3816C0.198166 17.4715 -0.0726768 17.8883 0.0172293 18.3125C0.266885 19.4899 0.865197 20.5572 1.72845 21.385C1.11176 22.3452 0.778291 23.4689 0.778291 24.6197C0.778291 27.9212 3.46423 30.6072 6.76563 30.6072C6.92397 30.6072 7.08222 30.6009 7.23972 30.5884C7.35522 33.2309 9.54119 35.3453 12.2118 35.3453C12.6558 35.3453 13.0964 35.2867 13.5212 35.171C13.9397 35.0572 14.1866 34.6257 14.0728 34.2072Z" fill="#F2F1E7"/>
<path d="M31.1953 4.26731C30.6522 4.07775 30.0865 3.96825 29.5098 3.94087C28.9333 1.803 26.9791 0.2655 24.7062 0.2655C23.7846 0.2655 22.8796 0.52425 22.0998 1.00312C21.2077 0.3525 20.1343 0 19.0169 0C17.8995 0 16.826 0.352406 15.934 1.00303C15.1542 0.524062 14.2492 0.265406 13.3277 0.265406C11.0547 0.265406 9.10057 1.803 8.524 3.94078C5.35591 4.09181 2.82523 6.71662 2.82523 9.92137C2.82523 10.5523 2.92113 11.1664 3.11098 11.7552C1.73595 12.4746 0.667668 13.7196 0.181856 15.2061C0.0472309 15.6184 0.272324 16.0617 0.684449 16.1963C0.765449 16.2227 0.847667 16.2354 0.92848 16.2354C1.25895 16.2354 1.56645 16.0251 1.67464 15.6939C2.09529 14.4065 3.10817 13.3648 4.38438 12.9075C4.59363 12.8324 4.76135 12.6723 4.84573 12.4667C4.93019 12.2611 4.92354 12.0292 4.82744 11.8288C4.54085 11.2312 4.39554 10.5894 4.39554 9.92146C4.39554 7.48584 6.37713 5.50425 8.81275 5.50425C8.90097 5.50425 8.99725 5.508 9.11519 5.51587C9.53144 5.54474 9.89707 5.24137 9.94741 4.827C10.1542 3.12159 11.6075 1.83553 13.3277 1.83553C14.1194 1.83553 14.8622 2.09944 15.4756 2.59856C15.7801 2.84644 16.2212 2.83115 16.5078 2.56256C17.1909 1.92272 18.0819 1.57022 19.0167 1.57022C19.9516 1.57022 20.8425 1.92272 21.5256 2.56256C21.8122 2.83115 22.2534 2.84644 22.5579 2.59856C23.1715 2.09934 23.9142 1.83553 24.7059 1.83553C26.4261 1.83553 27.8793 3.12159 28.0861 4.827C28.1364 5.24128 28.502 5.54437 28.9184 5.51578C29.0365 5.50781 29.1326 5.50415 29.2208 5.50415C29.7206 5.50415 30.2106 5.58675 30.6773 5.74978C31.0869 5.89265 31.5344 5.67656 31.6773 5.26725C31.8206 4.85793 31.6047 4.41018 31.1953 4.26731Z" fill="#F2F1E7"/>
<path d="M38.1468 17.0665C38.1468 14.8189 36.8795 12.7745 34.9231 11.7546C35.1128 11.1659 35.2086 10.5521 35.2086 9.92137C35.2086 8.34177 34.5991 6.85152 33.4921 5.72503C33.1881 5.41574 32.6912 5.41153 32.3818 5.71528C32.0724 6.01921 32.0682 6.51637 32.372 6.82556C33.1887 7.65656 33.6384 8.75596 33.6384 9.92127C33.6384 10.5893 33.4931 11.2311 33.2065 11.8286C33.1104 12.0291 33.1037 12.2609 33.1882 12.4665C33.2727 12.6721 33.4403 12.8324 33.6496 12.9073C35.4005 13.5347 36.5766 15.206 36.5766 17.0662C36.5766 18.4651 35.9023 19.7961 34.7728 20.6268C34.5975 20.7558 34.4836 20.9516 34.4582 21.1678C34.4328 21.3839 34.4983 21.6009 34.6389 21.7669C35.3137 22.5632 35.6854 23.5764 35.6854 24.62C35.6854 27.0557 33.7039 29.0373 31.2682 29.0373C30.8901 29.0373 30.5138 28.9892 30.1499 28.8943C29.8916 28.8271 29.617 28.8953 29.4206 29.0758C29.2242 29.2563 29.1327 29.5242 29.178 29.787C29.2116 29.9823 29.2285 30.178 29.2285 30.3689C29.2285 32.2473 27.7003 33.7755 25.8219 33.7755C25.4998 33.7755 25.1813 33.7308 24.8753 33.6424C24.4585 33.5223 24.0235 33.7626 23.9033 34.1793C23.7832 34.5959 24.0235 35.0311 24.4401 35.1513C24.8876 35.2803 25.3525 35.3457 25.8217 35.3457C28.4923 35.3457 30.6783 33.2313 30.7938 30.5888C30.9514 30.6013 31.1095 30.6076 31.2679 30.6076C34.5694 30.6076 37.2552 27.9215 37.2552 24.6201C37.2552 23.4689 36.9216 22.345 36.3046 21.3845C37.4697 20.263 38.1468 18.6989 38.1468 17.0665Z" fill="#F2F1E7"/>
<path d="M17.8717 34.0935C17.4381 34.0935 17.0865 34.4451 17.0865 34.8787V38.438C17.0865 38.8716 17.4381 39.2231 17.8717 39.2231C18.3053 39.2231 18.6568 38.8716 18.6568 38.438V34.8787C18.6568 34.4451 18.3053 34.0935 17.8717 34.0935Z" fill="#F2F1E7"/>
</svg>
